<?xml version="1.0" encoding="UTF-8"?>
<svg width="752pt" height="752pt" version="1.1" viewBox="0 0 752 752" xmlns="http://www.w3.org/2000/svg">
 <path d="m303.36 230.75c-16.395-16.395-43.082-16.395-59.48 0-7.9414 7.9414-12.316 18.508-12.316 29.742 0 11.234 4.375 21.801 12.316 29.746 10.992 10.996 27.078 15.023 41.992 10.488l3.2148-0.97656 56.262 56.262v202.26c0 17.008 13.84 30.844 30.844 30.844 17.008 0 30.844-13.84 30.844-30.844v-202.6l55.875-55.93 3.2188 0.97656c14.918 4.543 31.012 0.51562 42-10.484 16.398-16.398 16.398-43.086 0-59.488-16.395-16.395-43.082-16.391-59.488 0-10.992 10.996-15.012 27.086-10.488 41.992l0.97656 3.2148-46.301 46.301v-78.613l2.9648-1.582c13.738-7.3398 22.273-21.559 22.273-37.109 0.003907-23.191-18.863-42.059-42.059-42.059-23.195 0-42.062 18.867-42.062 42.062 0 15.547 8.5352 29.766 22.273 37.109l2.9648 1.582v78.578l-46.293-46.293 0.97266-3.2148c4.5078-14.898 0.48437-30.984-10.504-41.965z"/>
</svg>
